<?xml version="1.0" encoding="utf-8"?><!--Generator: Adobe Illustrator 24.1.0, SVG Export Plug-In . SVG Version: 6.00 Build 0)--><svg version="1.1" id="NewNote" xmlns="http://www.w3.org/2000/svg" xmlns:xlink="http://www.w3.org/1999/xlink" x="0px" y="0px" viewBox="0 0 593.64 283.92" style="enable-background:new 0 0 593.64 283.92;" width="150px" height="72px" xml:space="preserve"><style type="text/css">.st0{fill:none;stroke:#EE2C53;}
	.st1{fill:#CE0E2D;}
	.st2{fill:#FFFFFF;}</style><g><path d="M436.71,66.06c0,0-11.58,2.88-16.8,4.21c-4.97,1.27-5.77,4.7-5.71,7.17l-0.77,63.11c0.09,4.58,3.07,4.45,4.83,4.09
		c0,0,11.58-2.88,16.8-4.21c5.1-1.3,5.77-4.86,5.66-7.34l0.82-62.95C441.45,65.56,438.47,65.69,436.71,66.06z"/><path d="M436.86,39.53c0,0-11.58,2.88-16.81,4.21c-4.97,1.27-5.77,4.7-5.71,7.18l-0.07,9.02c0.08,4.57,3.07,4.45,4.82,4.08
		c0,0,11.58-2.88,16.81-4.21c5.09-1.3,5.77-4.86,5.66-7.34l0.12-8.85C441.6,39.04,438.61,39.16,436.86,39.53z"/><path d="M332,106.49c0.03-1.94-0.3-14.11-10.46-11.57l-27.61,6.91l0.59-41.25c-0.08-4.57-3.07-4.45-4.83-4.08
		c0,0-11.58,2.88-16.8,4.21c-4.98,1.27-5.77,4.7-5.71,7.17l-1.51,109.7c0.08,4.57,3.07,4.45,4.83,4.09c0,0,11.58-2.88,16.8-4.21
		c5.09-1.3,5.77-4.86,5.66-7.34l0.78-54.52l6.3-1.58c2.33-0.59,5.47-0.69,5.47,3.12c0,0-0.61,48.02-0.59,48.2l0,0.03l0,0
		c0.56,5.62,6.1,6.24,9.68,5.31l19.18-4.81c3.2-0.93,3.82-3.5,1.41-5.35c-1.88-1.44-3.76-3.51-3.8-8.55L332,106.49z"/><path d="M400.74,75.07c0,0-9.44,2.34-14.66,3.67c-4.97,1.27-5.72,4.69-5.71,7.17l-0.55,45.81c-0.32,12.11-7.87,13.57-9.58,14
		l-1.47,0.37l0.75-57.9c-0.08-4.58-3.07-4.45-4.82-4.08c0,0-11.58,2.88-16.8,4.21c-4.98,1.27-5.71,4.69-5.71,7.17l-0.77,63.11
		c0.05,4.57,3.07,4.45,4.82,4.09c0,0,28.39-7.11,30.22-7.58c29.42-7.37,28.57-29.47,28.56-33.94l0.55-42.02
		C405.48,74.58,402.5,74.71,400.74,75.07z"/><path d="M474.1,10.28c0,0-11.58,2.88-16.8,4.21c-4.98,1.27-5.65,4.63-5.71,7.17l-1.52,109.7c0.08,4.58,3.08,4.51,4.84,4.14
		l25.03-6.26c3.2-0.93,3.82-3.5,1.41-5.35c-2.01-1.55-3.83-4.4-3.86-8.86l0,0l1.44-100.67C478.93,9.78,475.86,9.91,474.1,10.28z"/><path d="M513.82,0.18c0,0-11.46,3.1-16.63,4.54c-4.92,1.37-5.59,4.98-5.68,7.63l-3.04,164.99c0.06,4.85,2.96,4.8,4.7,4.41
		l24.84-6.79c3.17-1,3.79-3.73,1.42-5.68c-1.99-1.63-3.76-4.64-3.77-9.38l0,0l2.92-155.41C518.56-0.36,515.55-0.22,513.82,0.18z"/><path d="M170.06,132.85c0,0-46.73,11.72-46.75,11.73c-4.97,1.27-11,6.16-10.88,12.7c0,0-0.15,11.03-0.15,10.98
		c-0.06,4.57,3.61,4.12,4.28,3.95l17.96-4.5c1.8-0.45,4.01-1.77,4.82-4.55c0.16-0.49,0.31-1.21,0.27-2.14
		c-0.05-1.07,0.01-2.02,0.01-2.02c0.28-2.65-0.24-5.55,3.4-7.62c1.3-0.74,3.76-1.39,3.76-1.39l0.13-0.03
		c0.52-0.13,2.48-0.58,3.98-0.55c4.17,0.11,4.35,3.6,4.41,4.61l-0.17,14.37l-35.45,8.92c-2.33,0.58-7.27,3.07-7.64,8.52l-0.45,27.4
		c0.22,6.17,6.01,6.87,9.72,5.91l61.4-15.39c3.2-0.93,3.82-3.5,1.41-5.35c-2.01-1.55-3.83-4.4-3.86-8.86l0.64-51.76
		C180.84,132.53,177.52,130.98,170.06,132.85z M154.76,198.68l-12.09,3.02c-0.67,0.13-1.72,0.39-2.69-0.48
		c-1.14-0.92-1.34-2.67-1.38-3.16c-0.03-0.39-0.05-1.5-0.04-4.21c0.01-1.78,0-4.17,0.15-5.9c0.14-1.68,0.63-2.76,1.16-3.49
		c0.59-1.02,1.66-1.87,3.59-2.56l11.59-2.9L154.76,198.68z"/><path d="M535.16,115.52c0,0,3.79-0.96,9.02-2.26c0.05-0.01,0.1-0.03,0.15-0.05l33.18-8.32c1.02-0.26,2.08-0.52,3.12-0.78l1.22-0.31
		l0,0c0.03,0,0.05-0.01,0.07-0.02c4.98-1.27,11.01-6.16,10.88-12.7l0.16-11.42c-0.01,0.05-0.02,0.1-0.02,0.14
		c-0.35-4.36-3.6-3.82-4.27-3.66l-16.01,4.01c-1.8,0.45-4.01,1.77-4.82,4.55c-0.16,0.49-0.29,1.21-0.27,2.14
		c0.02,1.09,0.02,1.49,0.01,2.01c-0.01,0.65,0.22,5.56-3.41,7.63c-1.3,0.74-3.25,1.26-3.76,1.39l-2.08,0.52l0,0
		c-0.51,0.13-1.04,0.21-2.1,0.18c-4.17-0.14-4.28-3.83-4.33-5.22l0.17-13.88l30.91-7.75l-0.01-0.04l2.6-0.65
		c2.82-0.67,7.34-3.57,7.64-7.83l0.34-21.5l0.12-6.59c-0.22-6.17-6.01-6.87-9.72-5.91l-48.37,12.13
		c-1.82,0.46-10.19,3.82-10.48,11.94l-0.08,5.61l-0.63,49.78l-0.04,1.91C524.38,115.85,527.71,117.39,535.16,115.52z M552.48,48.3
		l11.21-2.81l0.88-0.21c0.67-0.14,1.72-0.39,2.69,0.48c1.14,0.92,1.34,2.67,1.38,3.16c0.03,0.39,0.05,1.5,0.04,4.21
		c-0.01,1.78-0.06,5.08-0.21,6.81c-0.14,1.68-0.63,2.76-1.16,3.48c-0.59,1.03-1.66,1.87-3.58,2.56l-11.59,2.9L552.48,48.3z"/><path d="M253.7,111.9c-6.04,1.51-52.38,13.13-52.38,13.13l0,0c-0.02,0.01-0.05,0.01-0.07,0.02c-4.98,1.27-11,6.16-10.88,12.7
		l-0.39,24.16c0.22,6.17,6.01,6.87,9.72,5.91l27.66-6.93c3.88-0.97,5.19,1.15,5.25,4.97l-0.05,10.35c-0.05,1.62-0.59,4.16-3.75,4.95
		l-8.4,2.11c-3.52,0.88-3.58-1.77-3.62-4.12l0.04-3.4c-0.08-4.57-2.78-4.64-5.27-3.97c0,0-11.13,2.77-16.35,4.1
		c-4.98,1.27-5.77,4.7-5.72,7.17l-0.13,10.23c-0.02,6.64,6,7.25,9.71,6.29c0,0,41.99-10.49,47.21-11.82
		c5.09-1.3,11.76-5.72,11.8-13.46l0.29-26.53c-0.08-4.57-3.07-4.45-4.82-4.08l-32.36,8.11c-3.71,0.8-3.72-1.87-3.77-3.43
		c0.05-4.19,0.13-8.88,0.13-8.88c0.28-2.65-0.24-5.55,3.4-7.62c0.32-0.18,0.69-0.36,1.06-0.51c1.03-0.4,2.07-0.68,2.52-0.79
		c0.66-0.17,0,0,0,0c0.52-0.13,2.93-0.82,4.43-0.74c2.54,0.13,4.21,2.16,4.11,5.95c0,0-0.03,2.24-0.03,2.23
		c0.04,4.35,3.51,4.15,4.51,3.9l16.13-4.04c1.8-0.45,4.01-1.77,4.82-4.55c0.16-0.49,0.29-1.41,0.27-2.49
		c-0.01-1.07,0.06-15.09,0.06-15.09C258.86,112.19,256.58,111.17,253.7,111.9z"/><g><path d="M131.08,271.99l-7.55,1.89l-0.19-38.14l12.03-3.01l4.14,16.68c0.66,2.73,1.11,5.58,1.45,8.44l0.11-0.03
			c0.36-3.86,0.62-6.47,1.14-9.1l3.96-18.7l11.97-2.99l0.19,38.13l-7.55,1.89l-0.06-12c-0.04-7.57,0.09-15.19,0.53-22.89l-0.11,0.03
			l-7.92,36.75l-4.59,1.14l-8.1-32.74l-0.27,0.07c0.52,7.45,0.72,14.99,0.76,22.57L131.08,271.99z"/><path d="M190.28,219l7.55-1.89l0.13,26.6c0.04,8.44-2.85,13.18-12.72,15.65c-9.98,2.5-12.91-0.79-12.95-9.23l-0.13-26.59
			l7.55-1.89l0.13,25.98c0.02,3.66,0.31,7.25,5.43,5.97c4.91-1.23,5.16-4.95,5.14-8.61L190.28,219z"/><path d="M227.39,221.33c0.04-3.42-0.3-6.69-4.46-5.66c-2.54,0.63-4.15,2-4.14,4.6c0.01,2.9,1.96,3.53,4.34,4.36
			c2.49,0.85,7.09,2.56,9.2,3.96c2.6,1.74,3.42,3.83,3.44,7.13c0.03,7.22-5.02,12.25-12.41,14.1c-9.06,2.27-12.32-1.71-12.36-8.52
			l-0.01-2.8l7.55-1.89l0.01,2.24c-0.14,3.75,1.06,6.15,4.78,5.22c3.18-0.8,4.68-2.75,4.67-5.65c-0.01-2.24-1.1-3.49-3.05-4.28
			c-3.95-1.92-8.87-2.77-11.96-5.82c-1.25-1.42-1.96-3.33-1.97-5.36c-0.03-6.5,3.83-11.04,11.82-13.04
			c12.03-3.01,11.75,5.82,11.82,9.57L227.39,221.33z"/><path d="M248.94,242.52l-0.19-38.14l7.55-1.89l0.19,38.13L248.94,242.52z"/><path d="M294.55,217.52c-0.05,0.72-0.1,1.5-0.15,2.22c-0.35,7.06-2.8,13.02-11.22,15.12c-12.41,3.1-13.25-4.12-13.3-14.29
			l-0.03-5.44c0.28-9.8,1.05-17.22,13.13-20.24c6.74-1.58,10.54,0.73,11.11,7.1c0.11,0.94,0.23,1.88,0.18,2.86l-7.44,1.86
			c-0.34-2.36-0.09-7-3.81-6.07c-5.93,1.48-5.42,8.02-5.4,10.97l0.05,10.57c0.02,3.15,0.31,8.22,5.49,6.92
			c4.15-1.04,3.64-7.22,3.79-9.7L294.55,217.52z"/><path d="M387.01,194.39c-0.05,0.73-0.1,1.51-0.15,2.23c-0.35,7.06-2.8,13.02-11.22,15.12c-12.41,3.11-13.25-4.12-13.31-14.28
			l-0.02-5.44c0.28-9.79,1.05-17.22,13.13-20.24c6.74-1.58,10.54,0.72,11.1,7.1c0.12,0.94,0.23,1.88,0.18,2.86l-7.45,1.86
			c-0.33-2.36-0.09-7-3.81-6.07c-5.93,1.48-5.41,8.03-5.4,10.97l0.05,10.58c0.02,3.15,0.31,8.22,5.49,6.92
			c4.15-1.04,3.63-7.22,3.79-9.7L387.01,194.39z"/><path d="M397.37,205.72l-0.19-38.14l7.55-1.89l0.19,38.14L397.37,205.72z"/><path d="M413.58,163.16l25.19-6.3l0.03,5.59l-8.79,2.2l0.16,32.54l-7.55,1.89l-0.15-32.54l-8.85,2.21L413.58,163.16z"/><path d="M459.64,161.67c0.82,1.68,1.47,3.45,1.81,5.4l0.11-0.02c0.53-3.09,1.54-5.48,2.44-7.84l3.58-9.55l8.25-2.06l-10.57,24.59
			l0.08,16.22l-7.55,1.89l-0.08-16.22l-10.62-19.29l8.25-2.06L459.64,161.67z"/></g><path d="M2.82,127.72c0,0,76.16-19.1,89.79-22.51c8.21-2.06,11.17,2.26,12.11,4.66c0.76,1.93,1,5.35,1.01,7.45l-2.53,145.5
		c0.03,4.72,1.95,7.74,4.08,9.38c2.55,1.96,1.9,4.68-1.49,5.66l-0.25,0.06l-21.47,5.38c-3.93,1.02-10.06,0.29-10.29-6.25
		l2.62-144.73c-0.02-2.99-1.56-5.31-6.91-4.29l-11.76,2.95l-1.54,104.56c0.11,2.63-0.6,6.39-6,7.77
		c-5.52,1.41-17.78,4.46-17.78,4.46c-1.86,0.39-5.02,0.52-5.11-4.32l1.5-105.22L4.48,144.3c-1.83,0.33-4.27,0.13-4.47-3.08L0,131.69
		C-0.03,130.25,0.78,128.29,2.82,127.72z"/><path class="st0" d="M523.11,178.67"/><path class="st0" d="M77.68,283.92"/><g><path class="st1" d="M328.11,175.99c0,0-1.26,1.12-1.16,1.94l-1.64,51.6c0,0,0.04,0.83-1.56,0.51c0,0-6.54-3.38-14.17,0.87
			c0,0-5.49,2.92-5.37,8.82c0,0,0.93,7.09,10.76,6.52c0,0,11.06-1.15,12.01-10.03l1.12-32.86c0,0-0.18-5.13,4.73-4.27
			c0,0,8.55,1.86,11.62,13.01c0,0,3.85,13.26-7.97,22.11c0,0,12.22-6.43,9.9-22.32c0,0-0.47-6.43-9.32-16.27
			c0,0-8.29-7.69-8.41-18.61L328.11,175.99z"/><path class="st2" d="M317.91,229.39c0,0-8.28,1.04-10.54,9.47c0,0-1.21,1.04-1.64,0.83c0,0-0.77-1.04,0.6-3.71
			C306.33,235.97,309.57,229.84,317.91,229.39z"/><path class="st2" d="M328.66,184.76c0,0-1.41,3.82,5.56,10.75c0,0,5.87,6.11,7.53,8.4c0,0-6.8-9.17-8.51-10.68
			C333.25,193.22,330.07,189.3,328.66,184.76z"/></g></g></svg>